<mxfile host="65bd71144e">
    <diagram id="fnSEmeR2x9cJGW3uglR_" name="Page-1">
        <mxGraphModel dx="1439" dy="701" grid="1" gridSize="10" guides="1" tooltips="1" connect="1" arrows="1" fold="1" page="1" pageScale="1" pageWidth="850" pageHeight="1100" math="0" shadow="0">
            <root>
                <mxCell id="0"/>
                <mxCell id="1" parent="0"/>
                <mxCell id="2" value="&lt;drawio&gt;&#10;  &lt;diagram name=&quot;Library Book Booking System&quot; id=&quot;R4&quot;&gt;&#10;    &lt;mxGraphModel dx=&quot;960&quot; dy=&quot;540&quot; grid=&quot;1&quot; gridSize=&quot;10&quot; guides=&quot;1&quot; tooltips=&quot;1&quot; connect=&quot;1&quot; arrows=&quot;1&quot; fold=&quot;1&quot; page=&quot;1&quot; pageScale=&quot;1&quot; pageWidth=&quot;827&quot; pageHeight=&quot;1169&quot; math=&quot;0&quot; shadow=&quot;0&quot;&gt;&#10;      &lt;root&gt;&#10;        &lt;mxCell id=&quot;0&quot; /&gt;&#10;        &lt;mxCell id=&quot;1&quot; parent=&quot;0&quot; /&gt;&#10;        &lt;mxCell id=&quot;JdD7uZolxBftZ6E8cCY7-2&quot; value=&quot;&quot; style=&quot;group&quot; vertex=&quot;1&quot; connectable=&quot;0&quot; parent=&quot;1&quot;&gt;&#10;          &lt;mxGeometry x=&quot;180&quot; y=&quot;110&quot; width=&quot;480&quot; height=&quot;360&quot; as=&quot;geometry&quot; /&gt;&#10;        &lt;/mxCell&gt;&#10;        &lt;mxCell id=&quot;JdD7uZolxBftZ6E8cCY7-3&quot; value=&quot;&quot; style=&quot;group&quot; vertex=&quot;1&quot; connectable=&quot;0&quot; parent=&quot;JdD7uZolxBftZ6E8cCY7-2&quot;&gt;&#10;          &lt;mxGeometry x=&quot;100&quot; y=&quot;240&quot; width=&quot;280&quot; height=&quot;60&quot; as=&quot;geometry&quot; /&gt;&#10;        &lt;/mxCell&gt;&#10;        &lt;mxCell id=&quot;JdD7uZolxBftZ6E8cCY7-4&quot; value=&quot;Library Member&quot; style=&quot;ellipse;whiteSpace=wrap;html=1;&quot; vertex=&quot;1&quot; connectable=&quot;0&quot; parent=&quot;JdD7uZolxBftZ6E8cCY7-3&quot;&gt;&#10;          &lt;mxGeometry x=&quot;20&quot; y=&quot;20&quot; width=&quot;240&quot; height=&quot;40&quot; as=&quot;geometry&quot; /&gt;&#10;        &lt;/mxCell&gt;&#10;        &lt;mxCell id=&quot;JdD7uZolxBftZ6E8cCY7-5&quot; value=&quot;&quot; style=&quot;group&quot; vertex=&quot;1&quot; connectable=&quot;0&quot; parent=&quot;JdD7uZolxBftZ6E8cCY7-2&quot;&gt;&#10;          &lt;mxGeometry x=&quot;300&quot; y=&quot;240&quot; width=&quot;280&quot; height=&quot;60&quot; as=&quot;geometry&quot; /&gt;&#10;        &lt;/mxCell&gt;&#10;        &lt;mxCell id=&quot;JdD7uZolxBftZ6E8cCY7-6&quot; value=&quot;Librarian&quot; style=&quot;ellipse;whiteSpace=wrap;html=1;&quot; vertex=&quot;1&quot; connectable=&quot;0&quot; parent=&quot;JdD7uZolxBftZ6E8cCY7-5&quot;&gt;&#10;          &lt;mxGeometry x=&quot;20&quot; y=&quot;20&quot; width=&quot;240&quot; height=&quot;40&quot; as=&quot;geometry&quot; /&gt;&#10;        &lt;/mxCell&gt;&#10;        &lt;mxCell id=&quot;JdD7uZolxBftZ6E8cCY7-7&quot; value=&quot;&quot; style=&quot;group&quot; vertex=&quot;1&quot; connectable=&quot;0&quot; parent=&quot;JdD7uZolxBftZ6E8cCY7-2&quot;&gt;&#10;          &lt;mxGeometry x=&quot;190&quot; y=&quot;20&quot; width=&quot;280&quot; height=&quot;180&quot; as=&quot;geometry&quot; /&gt;&#10;        &lt;/mxCell&gt;&#10;        &lt;mxCell id=&quot;JdD7uZolxBftZ6E8cCY7-8&quot; value=&quot;System&quot; style=&quot;ellipse;whiteSpace=wrap;html=1;&quot; vertex=&quot;1&quot; connectable=&quot;0&quot; parent=&quot;JdD7uZolxBftZ6E8cCY7-7&quot;&gt;&#10;          &lt;mxGeometry x=&quot;20&quot; y=&quot;20&quot; width=&quot;240&quot; height=&quot;40&quot; as=&quot;geometry&quot; /&gt;&#10;        &lt;/mxCell&gt;&#10;        &lt;mxCell id=&quot;JdD7uZolxBftZ6E8cCY7-9&quot; value=&quot;&quot; style=&quot;group&quot; vertex=&quot;1&quot; connectable=&quot;0&quot; parent=&quot;JdD7uZolxBftZ6E8cCY7-2&quot;&gt;&#10;          &lt;mxGeometry x=&quot;10&quot; y=&quot;20&quot; width=&quot;160&quot; height=&quot;60&quot; as=&quot;geometry&quot; /&gt;&#10;        &lt;/mxCell&gt;&#10;        &lt;mxCell id=&quot;JdD7uZolxBftZ6E8cCY7-10&quot; value=&quot;Search Books&quot; style=&quot;ellipse;whiteSpace=wrap;html=1;&quot; vertex=&quot;1&quot; connectable=&quot;0&quot; parent=&quot;JdD7uZolxBftZ6E8cCY7-9&quot;&gt;&#10;          &lt;mxGeometry x=&quot;20&quot; y=&quot;20&quot; width=&quot;120&quot; height=&quot;40&quot; as=&quot;geometry&quot; /&gt;&#10;        &lt;/mxCell&gt;&#10;        &lt;mxCell id=&quot;JdD7uZolxBftZ6E8cCY7-11&quot; value=&quot;&quot; style=&quot;group&quot; vertex=&quot;1&quot; connectable=&quot;0&quot; parent=&quot;JdD7uZolxBftZ6E8cCY7-2&quot;&gt;&#10;          &lt;mxGeometry x=&quot;10&quot; y=&quot;100&quot; width=&quot;160&quot; height=&quot;60&quot; as=&quot;geometry&quot; /&gt;&#10;        &lt;/mxCell&gt;&#10;        &lt;mxCell id=&quot;JdD7uZolxBftZ6E8cCY7-12&quot; value=&quot;Reserve Book&quot; style=&quot;ellipse;whiteSpace=wrap;html=1;&quot; vertex=&quot;1&quot; connectable=&quot;0&quot; parent=&quot;JdD7uZolxBftZ6E8cCY7-11&quot;&gt;&#10;          &lt;mxGeometry x=&quot;20&quot; y=&quot;20&quot; width=&quot;120&quot; height=&quot;40&quot; as=&quot;geometry&quot; /&gt;&#10;        &lt;/mxCell&gt;&#10;        &lt;mxCell id=&quot;JdD7uZolxBftZ6E8cCY7-13&quot; value=&quot;&quot; style=&quot;group&quot; vertex=&quot;1&quot; connectable=&quot;0&quot; parent=&quot;JdD7uZolxBftZ6E8cCY7-2&quot;&gt;&#10;          &lt;mxGeometry x=&quot;10&quot; y=&quot;180&quot; width=&quot;160&quot; height=&quot;60&quot; as=&quot;geometry&quot; /&gt;&#10;        &lt;/mxCell&gt;&#10;        &lt;mxCell id=&quot;JdD7uZolxBftZ6E8cCY7-14&quot; value=&quot;Check Availability&quot; style=&quot;ellipse;whiteSpace=wrap;html=1;&quot; vertex=&quot;1&quot; connectable=&quot;0&quot; parent=&quot;JdD7uZolxBftZ6E8cCY7-13&quot;&gt;&#10;          &lt;mxGeometry x=&quot;20&quot; y=&quot;20&quot; width=&quot;120&quot; height=&quot;40&quot; as=&quot;geometry&quot; /&gt;&#10;        &lt;/mxCell&gt;&#10;        &lt;mxCell id=&quot;JdD7uZolxBftZ6E8cCY7-15&quot; value=&quot;&quot; style=&quot;group&quot; vertex=&quot;1&quot; connectable=&quot;0&quot; parent=&quot;JdD7uZolxBftZ6E8cCY7-2&quot;&gt;&#10;          &lt;mxGeometry x=&quot;490&quot; y=&quot;120&quot; width=&quot;160&quot; height=&quot;160&quot; as=&quot;geometry&quot; /&gt;&#10;        &lt;/mxCell&gt;&#10;        &lt;mxCell id=&quot;JdD7uZolxBftZ6E8cCY7-16&quot; value=&quot;Manage Book Inventory&quot; style=&quot;ellipse;whiteSpace=wrap;html=1;&quot; vertex=&quot;1&quot; connectable=&quot;0&quot; parent=&quot;JdD7uZolxBftZ6E8cCY7-15&quot;&gt;&#10;          &lt;mxGeometry x=&quot;20&quot; y=&quot;20&quot; width=&quot;120&quot; height=&quot;40&quot; as=&quot;geometry&quot; /&gt;&#10;        &lt;/mxCell&gt;&#10;        &lt;mxCell id=&quot;JdD7uZolxBftZ6E8cCY7-17&quot; value=&quot;&quot; style=&quot;edgeStyle=orthogonalEdgeStyle;html=1;exitX=1;exitY=0.5;exitDx=0;exitDy=0;endArrow=classic;endFill=1;&quot; edge=&quot;1&quot; parent=&quot;1&quot; source=&quot;JdD7uZolxBftZ6E8cCY7-10&quot; target=&quot;JdD7uZolxBftZ6E8cCY7-4&quot;&gt;&#10;          &lt;mxGeometry relative=&quot;1&quot; as=&quot;geometry&quot; /&gt;&#10;        &lt;/mxCell&gt;&#10;        &lt;mxCell id=&quot;JdD7uZolxBftZ6E8cCY7-18&quot; value=&quot;&quot; style=&quot;edgeStyle=orthogonalEdgeStyle;html=1;exitX=1;exitY=0.5;exitDx=0;exitDy=0;endArrow=classic;endFill=1;&quot; edge=&quot;1&quot; parent=&quot;1&quot; source=&quot;JdD7uZolxBftZ6E8cCY7-12&quot; target=&quot;JdD7uZolxBftZ6E8cCY7-6&quot;&gt;&#10;          &lt;mxGeometry relative=&quot;1&quot; as=&quot;geometry&quot; /&gt;&#10;        &lt;/mxCell&gt;&#10;        &lt;mxCell id=&quot;JdD7uZolxBftZ6E8cCY7-19&quot; value=&quot;&quot; style=&quot;edgeStyle=orthogonalEdgeStyle;html=1;exitX=1;exitY=0.5;exitDx=0;exitDy=0;endArrow=classic;endFill=1;&quot; edge=&quot;1&quot; parent=&quot;1&quot; source=&quot;JdD7uZolxBftZ6E8cCY7-14&quot; target=&quot;JdD7uZolxBftZ6E8cCY7-8&quot;&gt;&#10;          &lt;mxGeometry relative=&quot;1&quot; as=&quot;geometry&quot; /&gt;&#10;        &lt;/mxCell&gt;&#10;        &lt;mxCell id=&quot;JdD7uZolxBftZ6E8cCY7-20&quot; value=&quot;&quot; style=&quot;edgeStyle=orthogonalEdgeStyle;html=1;exitX=1;exitY=0.5;exitDx=0;exitDy=0;endArrow=classic;endFill=1;&quot; edge=&quot;1&quot; parent=&quot;1&quot; source=&quot;JdD7uZolxBftZ6E8cCY7-16&quot; target=&quot;JdD7uZolxBftZ6E8cCY7-8&quot;&gt;&#10;          &lt;mxGeometry relative=&quot;1&quot; as=&quot;geometry&quot; /&gt;&#10;        &lt;/mxCell&gt;&#10;      &lt;/root&gt;&#10;    &lt;/mxGraphModel&gt;&#10;  &lt;/diagram&gt;&#10;&lt;/drawio&gt;" style="text;whiteSpace=wrap;html=1;" vertex="1" parent="1">
                    <mxGeometry x="60" y="10" width="680" height="970" as="geometry"/>
                </mxCell>
            </root>
        </mxGraphModel>
    </diagram>
</mxfile>